<?xml version="1.0" encoding="iso-8859-1"?>
<!-- Generator: Adobe Illustrator 19.0.0, SVG Export Plug-In . SVG Version: 6.00 Build 0)  -->
<svg version="1.1" id="Layer_1" xmlns="http://www.w3.org/2000/svg" xmlns:xlink="http://www.w3.org/1999/xlink" x="0px" y="0px"
	 viewBox="0 0 512 512" style="enable-background:new 0 0 512 512;" xml:space="preserve">
<polygon style="fill:#13B7DC;" points="501.801,70.45 435.387,86.916 435.387,399.065 501.801,415.53 "/>
<polygon style="fill:#E6E6E6;" points="10.199,192.323 10.199,293.657 435.387,399.065 435.387,86.916 "/>
<path d="M20.398,179.288v-8.775c0-5.633-4.566-10.199-10.199-10.199S0,164.879,0,170.512V315.47c0,5.633,4.566,10.199,10.199,10.199
	s10.199-4.566,10.199-10.199v-8.775l113.114,28.043v49.984c0,36.959,30.068,67.028,67.028,67.028h71.891
	c31.296,0,56.758-25.461,56.758-56.758v-11.744l170.156,42.184c0.811,0.201,1.635,0.3,2.454,0.3c2.255,0,4.472-0.748,6.286-2.166
	c2.47-1.934,3.914-4.896,3.914-8.033V70.45c0-3.137-1.444-6.099-3.914-8.033c-2.471-1.933-5.694-2.622-8.739-1.866L20.398,179.288z
	 M20.398,200.303L425.187,99.951v286.077L20.398,285.677V200.303z M308.791,394.99c0,20.049-16.311,36.359-36.359,36.359h-71.891
	c-25.711,0-46.63-20.918-46.63-46.63v-44.927l154.88,38.397V394.99z M491.602,402.493l-46.016-11.408V94.895l46.016-11.408V402.493z
	"/>
<path d="M232.863,167.855l-10.955,2.74c-5.465,1.366-8.787,6.904-7.42,12.369c1.159,4.635,5.317,7.728,9.887,7.728
	c0.818,0,1.651-0.1,2.481-0.307l10.955-2.74c5.465-1.366,8.787-6.904,7.42-12.369C243.866,169.811,238.33,166.489,232.863,167.855z"
	/>
<path d="M397.188,126.774l-121.872,30.468c-5.465,1.367-8.788,6.904-7.421,12.369c1.159,4.635,5.317,7.728,9.887,7.728
	c0.818,0,1.651-0.1,2.482-0.307l121.872-30.468c5.465-1.367,8.788-6.904,7.421-12.369
	C408.189,128.73,402.653,125.409,397.188,126.774z"/>
<g>
</g>
<g>
</g>
<g>
</g>
<g>
</g>
<g>
</g>
<g>
</g>
<g>
</g>
<g>
</g>
<g>
</g>
<g>
</g>
<g>
</g>
<g>
</g>
<g>
</g>
<g>
</g>
<g>
</g>
</svg>
